<mxfile host="app.diagrams.net" modified="2024-04-24T13:05:44.245Z" agent="Mozilla/5.0 (Windows NT 10.0; Win64; x64) AppleWebKit/537.36 (KHTML, like Gecko) Chrome/124.0.0.0 Safari/537.36 Edg/124.0.0.0" etag="t6eGkPoYPLMOSn1Zd6O0" version="22.1.16" type="device">
  <diagram name="Table" id="EkULL4cARkJ3wVFKztoy">
    <mxGraphModel dx="548" dy="384" grid="1" gridSize="10" guides="1" tooltips="1" connect="1" arrows="1" fold="1" page="1" pageScale="1" pageWidth="827" pageHeight="1169" math="0" shadow="0">
      <root>
        <mxCell id="0" />
        <mxCell id="1" parent="0" />
        <mxCell id="icsO_hYR4mXhb9sZMWGg-3" value="" style="edgeStyle=orthogonalEdgeStyle;rounded=0;orthogonalLoop=1;jettySize=auto;html=1;" edge="1" parent="1" source="icsO_hYR4mXhb9sZMWGg-1" target="icsO_hYR4mXhb9sZMWGg-2">
          <mxGeometry relative="1" as="geometry" />
        </mxCell>
        <mxCell id="icsO_hYR4mXhb9sZMWGg-4" value="S" style="edgeLabel;html=1;align=center;verticalAlign=middle;resizable=0;points=[];" vertex="1" connectable="0" parent="icsO_hYR4mXhb9sZMWGg-3">
          <mxGeometry x="0.4133" y="-4" relative="1" as="geometry">
            <mxPoint x="-4" y="12" as="offset" />
          </mxGeometry>
        </mxCell>
        <mxCell id="icsO_hYR4mXhb9sZMWGg-7" value="" style="edgeStyle=orthogonalEdgeStyle;rounded=0;orthogonalLoop=1;jettySize=auto;html=1;" edge="1" parent="1" source="icsO_hYR4mXhb9sZMWGg-1" target="icsO_hYR4mXhb9sZMWGg-6">
          <mxGeometry relative="1" as="geometry">
            <Array as="points">
              <mxPoint x="300" y="580" />
            </Array>
          </mxGeometry>
        </mxCell>
        <mxCell id="icsO_hYR4mXhb9sZMWGg-8" value="G" style="edgeLabel;html=1;align=center;verticalAlign=middle;resizable=0;points=[];" vertex="1" connectable="0" parent="icsO_hYR4mXhb9sZMWGg-7">
          <mxGeometry x="0.5956" y="2" relative="1" as="geometry">
            <mxPoint as="offset" />
          </mxGeometry>
        </mxCell>
        <mxCell id="icsO_hYR4mXhb9sZMWGg-11" value="" style="edgeStyle=orthogonalEdgeStyle;rounded=0;orthogonalLoop=1;jettySize=auto;html=1;" edge="1" parent="1" source="icsO_hYR4mXhb9sZMWGg-1" target="icsO_hYR4mXhb9sZMWGg-10">
          <mxGeometry relative="1" as="geometry">
            <Array as="points">
              <mxPoint x="525" y="580" />
            </Array>
          </mxGeometry>
        </mxCell>
        <mxCell id="icsO_hYR4mXhb9sZMWGg-12" value="H" style="edgeLabel;html=1;align=center;verticalAlign=middle;resizable=0;points=[];" vertex="1" connectable="0" parent="icsO_hYR4mXhb9sZMWGg-11">
          <mxGeometry x="0.7776" relative="1" as="geometry">
            <mxPoint as="offset" />
          </mxGeometry>
        </mxCell>
        <mxCell id="icsO_hYR4mXhb9sZMWGg-14" value="" style="edgeStyle=orthogonalEdgeStyle;rounded=0;orthogonalLoop=1;jettySize=auto;html=1;" edge="1" parent="1" source="icsO_hYR4mXhb9sZMWGg-1" target="icsO_hYR4mXhb9sZMWGg-13">
          <mxGeometry relative="1" as="geometry">
            <Array as="points">
              <mxPoint x="715" y="580" />
            </Array>
          </mxGeometry>
        </mxCell>
        <mxCell id="icsO_hYR4mXhb9sZMWGg-15" value="I" style="edgeLabel;html=1;align=center;verticalAlign=middle;resizable=0;points=[];fontFamily=Times New Roman;" vertex="1" connectable="0" parent="icsO_hYR4mXhb9sZMWGg-14">
          <mxGeometry x="0.8257" y="-2" relative="1" as="geometry">
            <mxPoint as="offset" />
          </mxGeometry>
        </mxCell>
        <mxCell id="icsO_hYR4mXhb9sZMWGg-17" value="" style="edgeStyle=orthogonalEdgeStyle;rounded=0;orthogonalLoop=1;jettySize=auto;html=1;entryX=0.5;entryY=0;entryDx=0;entryDy=0;" edge="1" parent="1" source="icsO_hYR4mXhb9sZMWGg-1" target="icsO_hYR4mXhb9sZMWGg-16">
          <mxGeometry relative="1" as="geometry">
            <mxPoint x="299.9999999999998" y="640" as="targetPoint" />
            <Array as="points">
              <mxPoint x="300" y="580" />
            </Array>
          </mxGeometry>
        </mxCell>
        <mxCell id="icsO_hYR4mXhb9sZMWGg-18" value="(" style="edgeLabel;html=1;align=center;verticalAlign=middle;resizable=0;points=[];" vertex="1" connectable="0" parent="icsO_hYR4mXhb9sZMWGg-17">
          <mxGeometry x="0.6323" y="3" relative="1" as="geometry">
            <mxPoint x="-3" y="6" as="offset" />
          </mxGeometry>
        </mxCell>
        <mxCell id="icsO_hYR4mXhb9sZMWGg-20" style="edgeStyle=orthogonalEdgeStyle;rounded=0;orthogonalLoop=1;jettySize=auto;html=1;entryX=0.5;entryY=0;entryDx=0;entryDy=0;" edge="1" parent="1" source="icsO_hYR4mXhb9sZMWGg-1" target="icsO_hYR4mXhb9sZMWGg-21">
          <mxGeometry relative="1" as="geometry">
            <mxPoint x="480" y="640" as="targetPoint" />
            <Array as="points">
              <mxPoint x="480" y="580" />
            </Array>
          </mxGeometry>
        </mxCell>
        <mxCell id="icsO_hYR4mXhb9sZMWGg-22" value="id" style="edgeLabel;html=1;align=center;verticalAlign=middle;resizable=0;points=[];" vertex="1" connectable="0" parent="icsO_hYR4mXhb9sZMWGg-20">
          <mxGeometry x="0.7876" y="-1" relative="1" as="geometry">
            <mxPoint as="offset" />
          </mxGeometry>
        </mxCell>
        <mxCell id="icsO_hYR4mXhb9sZMWGg-1" value="State 0&lt;br&gt;S&#39; -&amp;gt; .S&lt;br&gt;S -&amp;gt; .G&lt;br&gt;G -&amp;gt; .G &amp;amp; H&lt;br&gt;G -&amp;gt; .H&lt;br&gt;G -&amp;gt; .G ~ H&lt;br&gt;H -&amp;gt; .H # I&lt;br&gt;H -&amp;gt; .I&lt;br&gt;H -&amp;gt; .H - I&lt;br&gt;I -&amp;gt; .(G)&lt;br&gt;I -&amp;gt; .id&lt;br&gt;I -&amp;gt; .id(I)" style="rounded=0;whiteSpace=wrap;html=1;fontFamily=Times New Roman;" vertex="1" parent="1">
          <mxGeometry x="80" y="540" width="110" height="210" as="geometry" />
        </mxCell>
        <mxCell id="icsO_hYR4mXhb9sZMWGg-2" value="State 1&lt;br&gt;S&#39; -&amp;gt; S." style="rounded=0;whiteSpace=wrap;html=1;fontFamily=Times New Roman;" vertex="1" parent="1">
          <mxGeometry x="80" y="410" width="110" height="70" as="geometry" />
        </mxCell>
        <mxCell id="icsO_hYR4mXhb9sZMWGg-24" value="" style="edgeStyle=orthogonalEdgeStyle;rounded=0;orthogonalLoop=1;jettySize=auto;html=1;" edge="1" parent="1" source="icsO_hYR4mXhb9sZMWGg-6" target="icsO_hYR4mXhb9sZMWGg-23">
          <mxGeometry relative="1" as="geometry" />
        </mxCell>
        <mxCell id="icsO_hYR4mXhb9sZMWGg-25" value="&amp;amp;" style="edgeLabel;html=1;align=center;verticalAlign=middle;resizable=0;points=[];" vertex="1" connectable="0" parent="icsO_hYR4mXhb9sZMWGg-24">
          <mxGeometry x="-0.0349" y="1" relative="1" as="geometry">
            <mxPoint as="offset" />
          </mxGeometry>
        </mxCell>
        <mxCell id="icsO_hYR4mXhb9sZMWGg-27" value="" style="edgeStyle=orthogonalEdgeStyle;rounded=0;orthogonalLoop=1;jettySize=auto;html=1;" edge="1" parent="1" source="icsO_hYR4mXhb9sZMWGg-6" target="icsO_hYR4mXhb9sZMWGg-26">
          <mxGeometry relative="1" as="geometry" />
        </mxCell>
        <mxCell id="icsO_hYR4mXhb9sZMWGg-28" value="~" style="edgeLabel;html=1;align=center;verticalAlign=middle;resizable=0;points=[];" vertex="1" connectable="0" parent="icsO_hYR4mXhb9sZMWGg-27">
          <mxGeometry x="-0.0091" y="-1" relative="1" as="geometry">
            <mxPoint as="offset" />
          </mxGeometry>
        </mxCell>
        <mxCell id="icsO_hYR4mXhb9sZMWGg-6" value="State 2&lt;br&gt;S -&amp;gt; G.&lt;br&gt;G -&amp;gt; G. &amp;amp; H&lt;br&gt;G -&amp;gt; G. ~ H" style="whiteSpace=wrap;html=1;fontFamily=Times New Roman;rounded=0;" vertex="1" parent="1">
          <mxGeometry x="240" y="410" width="120" height="70" as="geometry" />
        </mxCell>
        <mxCell id="icsO_hYR4mXhb9sZMWGg-30" value="" style="edgeStyle=orthogonalEdgeStyle;rounded=0;orthogonalLoop=1;jettySize=auto;html=1;" edge="1" parent="1" source="icsO_hYR4mXhb9sZMWGg-10" target="icsO_hYR4mXhb9sZMWGg-29">
          <mxGeometry relative="1" as="geometry" />
        </mxCell>
        <mxCell id="icsO_hYR4mXhb9sZMWGg-31" value="#" style="edgeLabel;html=1;align=center;verticalAlign=middle;resizable=0;points=[];" vertex="1" connectable="0" parent="icsO_hYR4mXhb9sZMWGg-30">
          <mxGeometry x="-0.0022" relative="1" as="geometry">
            <mxPoint as="offset" />
          </mxGeometry>
        </mxCell>
        <mxCell id="icsO_hYR4mXhb9sZMWGg-36" style="edgeStyle=orthogonalEdgeStyle;rounded=0;orthogonalLoop=1;jettySize=auto;html=1;entryX=0.5;entryY=1;entryDx=0;entryDy=0;" edge="1" parent="1" source="icsO_hYR4mXhb9sZMWGg-10" target="icsO_hYR4mXhb9sZMWGg-35">
          <mxGeometry relative="1" as="geometry" />
        </mxCell>
        <mxCell id="icsO_hYR4mXhb9sZMWGg-37" value="-" style="edgeLabel;html=1;align=center;verticalAlign=middle;resizable=0;points=[];" vertex="1" connectable="0" parent="icsO_hYR4mXhb9sZMWGg-36">
          <mxGeometry x="0.0916" y="-3" relative="1" as="geometry">
            <mxPoint as="offset" />
          </mxGeometry>
        </mxCell>
        <mxCell id="icsO_hYR4mXhb9sZMWGg-10" value="State 3&lt;br&gt;G -&amp;gt; H.&lt;br&gt;H -&amp;gt; H. # I&lt;br&gt;H -&amp;gt; H. - I" style="whiteSpace=wrap;html=1;fontFamily=Times New Roman;rounded=0;" vertex="1" parent="1">
          <mxGeometry x="480" y="410" width="90" height="70" as="geometry" />
        </mxCell>
        <mxCell id="icsO_hYR4mXhb9sZMWGg-13" value="State 4&lt;br&gt;H -&amp;gt; I." style="whiteSpace=wrap;html=1;fontFamily=Times New Roman;rounded=0;" vertex="1" parent="1">
          <mxGeometry x="655" y="410" width="120" height="70" as="geometry" />
        </mxCell>
        <mxCell id="icsO_hYR4mXhb9sZMWGg-41" value="" style="edgeStyle=orthogonalEdgeStyle;rounded=0;orthogonalLoop=1;jettySize=auto;html=1;" edge="1" parent="1" source="icsO_hYR4mXhb9sZMWGg-16" target="icsO_hYR4mXhb9sZMWGg-40">
          <mxGeometry relative="1" as="geometry">
            <Array as="points">
              <mxPoint x="130" y="780" />
            </Array>
          </mxGeometry>
        </mxCell>
        <mxCell id="icsO_hYR4mXhb9sZMWGg-42" value="G" style="edgeLabel;html=1;align=center;verticalAlign=middle;resizable=0;points=[];" vertex="1" connectable="0" parent="icsO_hYR4mXhb9sZMWGg-41">
          <mxGeometry x="0.3932" y="-1" relative="1" as="geometry">
            <mxPoint y="12" as="offset" />
          </mxGeometry>
        </mxCell>
        <mxCell id="icsO_hYR4mXhb9sZMWGg-48" style="edgeStyle=orthogonalEdgeStyle;rounded=0;orthogonalLoop=1;jettySize=auto;html=1;entryX=0;entryY=0.5;entryDx=0;entryDy=0;" edge="1" parent="1" source="icsO_hYR4mXhb9sZMWGg-16" target="icsO_hYR4mXhb9sZMWGg-21">
          <mxGeometry relative="1" as="geometry" />
        </mxCell>
        <mxCell id="icsO_hYR4mXhb9sZMWGg-49" value="id" style="edgeLabel;html=1;align=center;verticalAlign=middle;resizable=0;points=[];" vertex="1" connectable="0" parent="icsO_hYR4mXhb9sZMWGg-48">
          <mxGeometry x="0.1374" y="2" relative="1" as="geometry">
            <mxPoint as="offset" />
          </mxGeometry>
        </mxCell>
        <mxCell id="icsO_hYR4mXhb9sZMWGg-16" value="State 5&lt;br&gt;I -&amp;gt; (.G)&lt;br&gt;G -&amp;gt; .G &amp;amp; H&lt;br style=&quot;border-color: var(--border-color);&quot;&gt;G -&amp;gt; .H&lt;br style=&quot;border-color: var(--border-color);&quot;&gt;G -&amp;gt; .G ~ H&lt;br&gt;H -&amp;gt; .H # I&lt;br style=&quot;border-color: var(--border-color);&quot;&gt;H -&amp;gt; .I&lt;br style=&quot;border-color: var(--border-color);&quot;&gt;H -&amp;gt; .H - I&lt;br style=&quot;border-color: var(--border-color);&quot;&gt;I -&amp;gt; .(G)&lt;br style=&quot;border-color: var(--border-color);&quot;&gt;I -&amp;gt; .id&lt;br style=&quot;border-color: var(--border-color);&quot;&gt;I -&amp;gt; .id(I)" style="whiteSpace=wrap;html=1;fontFamily=Times New Roman;rounded=0;" vertex="1" parent="1">
          <mxGeometry x="240" y="640" width="120" height="180" as="geometry" />
        </mxCell>
        <mxCell id="icsO_hYR4mXhb9sZMWGg-54" value="" style="edgeStyle=orthogonalEdgeStyle;rounded=0;orthogonalLoop=1;jettySize=auto;html=1;" edge="1" parent="1" source="icsO_hYR4mXhb9sZMWGg-21" target="icsO_hYR4mXhb9sZMWGg-53">
          <mxGeometry relative="1" as="geometry" />
        </mxCell>
        <mxCell id="icsO_hYR4mXhb9sZMWGg-55" value="(" style="edgeLabel;html=1;align=center;verticalAlign=middle;resizable=0;points=[];" vertex="1" connectable="0" parent="icsO_hYR4mXhb9sZMWGg-54">
          <mxGeometry x="-0.0844" y="-2" relative="1" as="geometry">
            <mxPoint as="offset" />
          </mxGeometry>
        </mxCell>
        <mxCell id="icsO_hYR4mXhb9sZMWGg-21" value="State 6&lt;br&gt;I -&amp;gt; id.&lt;br style=&quot;border-color: var(--border-color);&quot;&gt;&lt;span style=&quot;&quot;&gt;I -&amp;gt; id.(I)&lt;br&gt;&lt;/span&gt;" style="rounded=0;whiteSpace=wrap;html=1;fontFamily=Times New Roman;" vertex="1" parent="1">
          <mxGeometry x="420" y="650" width="120" height="70" as="geometry" />
        </mxCell>
        <mxCell id="icsO_hYR4mXhb9sZMWGg-57" value="" style="edgeStyle=orthogonalEdgeStyle;rounded=0;orthogonalLoop=1;jettySize=auto;html=1;" edge="1" parent="1" source="icsO_hYR4mXhb9sZMWGg-23" target="icsO_hYR4mXhb9sZMWGg-56">
          <mxGeometry relative="1" as="geometry" />
        </mxCell>
        <mxCell id="icsO_hYR4mXhb9sZMWGg-58" value="H" style="edgeLabel;html=1;align=center;verticalAlign=middle;resizable=0;points=[];" vertex="1" connectable="0" parent="icsO_hYR4mXhb9sZMWGg-57">
          <mxGeometry x="-0.0957" y="-4" relative="1" as="geometry">
            <mxPoint x="-7" as="offset" />
          </mxGeometry>
        </mxCell>
        <mxCell id="icsO_hYR4mXhb9sZMWGg-23" value="State 7&lt;br&gt;G -&amp;gt; G &amp;amp;. H&lt;br&gt;H -&amp;gt; .H # I&lt;br style=&quot;border-color: var(--border-color);&quot;&gt;H -&amp;gt; .I&lt;br style=&quot;border-color: var(--border-color);&quot;&gt;H -&amp;gt; .H - I&lt;br style=&quot;border-color: var(--border-color);&quot;&gt;I -&amp;gt; .(G)&lt;br style=&quot;border-color: var(--border-color);&quot;&gt;I -&amp;gt; .id&lt;br style=&quot;border-color: var(--border-color);&quot;&gt;I -&amp;gt; .id(I)" style="whiteSpace=wrap;html=1;fontFamily=Times New Roman;rounded=0;" vertex="1" parent="1">
          <mxGeometry x="205" y="200" width="75" height="150" as="geometry" />
        </mxCell>
        <mxCell id="icsO_hYR4mXhb9sZMWGg-71" value="" style="edgeStyle=orthogonalEdgeStyle;rounded=0;orthogonalLoop=1;jettySize=auto;html=1;" edge="1" parent="1" source="icsO_hYR4mXhb9sZMWGg-26" target="icsO_hYR4mXhb9sZMWGg-70">
          <mxGeometry relative="1" as="geometry" />
        </mxCell>
        <mxCell id="icsO_hYR4mXhb9sZMWGg-72" value="H" style="edgeLabel;html=1;align=center;verticalAlign=middle;resizable=0;points=[];" vertex="1" connectable="0" parent="icsO_hYR4mXhb9sZMWGg-71">
          <mxGeometry x="0.4322" y="1" relative="1" as="geometry">
            <mxPoint as="offset" />
          </mxGeometry>
        </mxCell>
        <mxCell id="icsO_hYR4mXhb9sZMWGg-26" value="State 8&lt;br&gt;G -&amp;gt; G ~. H&lt;br&gt;H -&amp;gt; .H # I&lt;br style=&quot;border-color: var(--border-color);&quot;&gt;H -&amp;gt; .I&lt;br style=&quot;border-color: var(--border-color);&quot;&gt;H -&amp;gt; .H - I&lt;br style=&quot;border-color: var(--border-color);&quot;&gt;I -&amp;gt; .(G)&lt;br style=&quot;border-color: var(--border-color);&quot;&gt;I -&amp;gt; .id&lt;br style=&quot;border-color: var(--border-color);&quot;&gt;I -&amp;gt; .id(I)" style="whiteSpace=wrap;html=1;fontFamily=Times New Roman;rounded=0;" vertex="1" parent="1">
          <mxGeometry x="305" y="200" width="80" height="150" as="geometry" />
        </mxCell>
        <mxCell id="icsO_hYR4mXhb9sZMWGg-29" value="State 9&lt;br&gt;H -&amp;gt; H #. I&lt;br&gt;I -&amp;gt; .(G)&lt;br style=&quot;border-color: var(--border-color);&quot;&gt;I -&amp;gt; .id&lt;br style=&quot;border-color: var(--border-color);&quot;&gt;I -&amp;gt; .id(I)" style="whiteSpace=wrap;html=1;fontFamily=Times New Roman;rounded=0;" vertex="1" parent="1">
          <mxGeometry x="425" y="240" width="75" height="110" as="geometry" />
        </mxCell>
        <mxCell id="icsO_hYR4mXhb9sZMWGg-35" value="State 10&lt;br&gt;H -&amp;gt; H -. I&lt;br&gt;I -&amp;gt; .(G)&lt;br style=&quot;border-color: var(--border-color);&quot;&gt;I -&amp;gt; .id&lt;br style=&quot;border-color: var(--border-color);&quot;&gt;I -&amp;gt; .id(I)" style="whiteSpace=wrap;html=1;fontFamily=Times New Roman;rounded=0;" vertex="1" parent="1">
          <mxGeometry x="540" y="240" width="75" height="110" as="geometry" />
        </mxCell>
        <mxCell id="icsO_hYR4mXhb9sZMWGg-92" value="" style="edgeStyle=orthogonalEdgeStyle;rounded=0;orthogonalLoop=1;jettySize=auto;html=1;" edge="1" parent="1" source="icsO_hYR4mXhb9sZMWGg-40" target="icsO_hYR4mXhb9sZMWGg-91">
          <mxGeometry relative="1" as="geometry" />
        </mxCell>
        <mxCell id="icsO_hYR4mXhb9sZMWGg-93" value=")" style="edgeLabel;html=1;align=center;verticalAlign=middle;resizable=0;points=[];" vertex="1" connectable="0" parent="icsO_hYR4mXhb9sZMWGg-92">
          <mxGeometry x="-0.1569" y="-1" relative="1" as="geometry">
            <mxPoint as="offset" />
          </mxGeometry>
        </mxCell>
        <mxCell id="icsO_hYR4mXhb9sZMWGg-94" style="edgeStyle=orthogonalEdgeStyle;rounded=0;orthogonalLoop=1;jettySize=auto;html=1;entryX=0;entryY=0.75;entryDx=0;entryDy=0;" edge="1" parent="1" source="icsO_hYR4mXhb9sZMWGg-40" target="icsO_hYR4mXhb9sZMWGg-23">
          <mxGeometry relative="1" as="geometry">
            <Array as="points">
              <mxPoint x="40" y="885" />
              <mxPoint x="40" y="312" />
            </Array>
          </mxGeometry>
        </mxCell>
        <mxCell id="icsO_hYR4mXhb9sZMWGg-95" value="&amp;amp;" style="edgeLabel;html=1;align=center;verticalAlign=middle;resizable=0;points=[];" vertex="1" connectable="0" parent="icsO_hYR4mXhb9sZMWGg-94">
          <mxGeometry x="0.1464" y="1" relative="1" as="geometry">
            <mxPoint as="offset" />
          </mxGeometry>
        </mxCell>
        <mxCell id="icsO_hYR4mXhb9sZMWGg-96" style="edgeStyle=orthogonalEdgeStyle;rounded=0;orthogonalLoop=1;jettySize=auto;html=1;entryX=0;entryY=1;entryDx=0;entryDy=0;" edge="1" parent="1" source="icsO_hYR4mXhb9sZMWGg-40" target="icsO_hYR4mXhb9sZMWGg-26">
          <mxGeometry relative="1" as="geometry">
            <Array as="points">
              <mxPoint x="60" y="885" />
              <mxPoint x="60" y="370" />
              <mxPoint x="305" y="370" />
            </Array>
          </mxGeometry>
        </mxCell>
        <mxCell id="icsO_hYR4mXhb9sZMWGg-97" value="~" style="edgeLabel;html=1;align=center;verticalAlign=middle;resizable=0;points=[];" vertex="1" connectable="0" parent="icsO_hYR4mXhb9sZMWGg-96">
          <mxGeometry x="-0.1323" y="1" relative="1" as="geometry">
            <mxPoint as="offset" />
          </mxGeometry>
        </mxCell>
        <mxCell id="icsO_hYR4mXhb9sZMWGg-40" value="State 11&lt;br&gt;I -&amp;gt; (G.)&lt;br style=&quot;border-color: var(--border-color);&quot;&gt;G -&amp;gt; G. &amp;amp; H&lt;br&gt;G -&amp;gt; G. ~ H" style="whiteSpace=wrap;html=1;fontFamily=Times New Roman;rounded=0;" vertex="1" parent="1">
          <mxGeometry x="90" y="840" width="90" height="90" as="geometry" />
        </mxCell>
        <mxCell id="icsO_hYR4mXhb9sZMWGg-43" value="" style="endArrow=classic;html=1;rounded=0;exitX=1;exitY=0;exitDx=0;exitDy=0;entryX=0;entryY=1;entryDx=0;entryDy=0;" edge="1" parent="1" source="icsO_hYR4mXhb9sZMWGg-16" target="icsO_hYR4mXhb9sZMWGg-10">
          <mxGeometry width="50" height="50" relative="1" as="geometry">
            <mxPoint x="270" y="570" as="sourcePoint" />
            <mxPoint x="320" y="520" as="targetPoint" />
          </mxGeometry>
        </mxCell>
        <mxCell id="icsO_hYR4mXhb9sZMWGg-44" value="H" style="edgeLabel;html=1;align=center;verticalAlign=middle;resizable=0;points=[];" vertex="1" connectable="0" parent="icsO_hYR4mXhb9sZMWGg-43">
          <mxGeometry x="0.3902" y="2" relative="1" as="geometry">
            <mxPoint as="offset" />
          </mxGeometry>
        </mxCell>
        <mxCell id="icsO_hYR4mXhb9sZMWGg-45" value="" style="endArrow=classic;html=1;rounded=0;exitX=1;exitY=0;exitDx=0;exitDy=0;entryX=0;entryY=1;entryDx=0;entryDy=0;" edge="1" parent="1" source="icsO_hYR4mXhb9sZMWGg-16" target="icsO_hYR4mXhb9sZMWGg-13">
          <mxGeometry width="50" height="50" relative="1" as="geometry">
            <mxPoint x="410" y="640" as="sourcePoint" />
            <mxPoint x="460" y="590" as="targetPoint" />
          </mxGeometry>
        </mxCell>
        <mxCell id="icsO_hYR4mXhb9sZMWGg-46" value="I" style="edgeLabel;html=1;align=center;verticalAlign=middle;resizable=0;points=[];fontFamily=Times New Roman;" vertex="1" connectable="0" parent="icsO_hYR4mXhb9sZMWGg-45">
          <mxGeometry x="0.6065" y="-2" relative="1" as="geometry">
            <mxPoint as="offset" />
          </mxGeometry>
        </mxCell>
        <mxCell id="icsO_hYR4mXhb9sZMWGg-51" style="edgeStyle=orthogonalEdgeStyle;rounded=0;orthogonalLoop=1;jettySize=auto;html=1;entryX=0.613;entryY=1.008;entryDx=0;entryDy=0;entryPerimeter=0;" edge="1" parent="1" source="icsO_hYR4mXhb9sZMWGg-16" target="icsO_hYR4mXhb9sZMWGg-16">
          <mxGeometry relative="1" as="geometry">
            <Array as="points">
              <mxPoint x="300" y="840" />
              <mxPoint x="314" y="840" />
            </Array>
          </mxGeometry>
        </mxCell>
        <mxCell id="icsO_hYR4mXhb9sZMWGg-52" value="(" style="edgeLabel;html=1;align=center;verticalAlign=middle;resizable=0;points=[];" vertex="1" connectable="0" parent="icsO_hYR4mXhb9sZMWGg-51">
          <mxGeometry x="0.0358" y="-2" relative="1" as="geometry">
            <mxPoint as="offset" />
          </mxGeometry>
        </mxCell>
        <mxCell id="icsO_hYR4mXhb9sZMWGg-99" value="" style="edgeStyle=orthogonalEdgeStyle;rounded=0;orthogonalLoop=1;jettySize=auto;html=1;" edge="1" parent="1" source="icsO_hYR4mXhb9sZMWGg-53" target="icsO_hYR4mXhb9sZMWGg-98">
          <mxGeometry relative="1" as="geometry" />
        </mxCell>
        <mxCell id="icsO_hYR4mXhb9sZMWGg-100" value="I" style="edgeLabel;html=1;align=center;verticalAlign=middle;resizable=0;points=[];fontFamily=Times New Roman;" vertex="1" connectable="0" parent="icsO_hYR4mXhb9sZMWGg-99">
          <mxGeometry x="-0.1155" y="-1" relative="1" as="geometry">
            <mxPoint as="offset" />
          </mxGeometry>
        </mxCell>
        <mxCell id="icsO_hYR4mXhb9sZMWGg-53" value="State 12&lt;br&gt;I -&amp;gt; id(.I)&lt;br&gt;I -&amp;gt; .(G)&lt;br style=&quot;border-color: var(--border-color);&quot;&gt;I -&amp;gt; .id&lt;br style=&quot;border-color: var(--border-color);&quot;&gt;I -&amp;gt; .id(I)" style="whiteSpace=wrap;html=1;fontFamily=Times New Roman;rounded=0;" vertex="1" parent="1">
          <mxGeometry x="615" y="640" width="120" height="90" as="geometry" />
        </mxCell>
        <mxCell id="icsO_hYR4mXhb9sZMWGg-59" style="edgeStyle=orthogonalEdgeStyle;rounded=0;orthogonalLoop=1;jettySize=auto;html=1;entryX=0.5;entryY=0;entryDx=0;entryDy=0;" edge="1" parent="1" source="icsO_hYR4mXhb9sZMWGg-56" target="icsO_hYR4mXhb9sZMWGg-29">
          <mxGeometry relative="1" as="geometry">
            <Array as="points">
              <mxPoint x="120" y="150" />
              <mxPoint x="462" y="150" />
            </Array>
          </mxGeometry>
        </mxCell>
        <mxCell id="icsO_hYR4mXhb9sZMWGg-62" value="#" style="edgeLabel;html=1;align=center;verticalAlign=middle;resizable=0;points=[];" vertex="1" connectable="0" parent="icsO_hYR4mXhb9sZMWGg-59">
          <mxGeometry x="0.8208" y="-2" relative="1" as="geometry">
            <mxPoint as="offset" />
          </mxGeometry>
        </mxCell>
        <mxCell id="icsO_hYR4mXhb9sZMWGg-61" style="edgeStyle=orthogonalEdgeStyle;rounded=0;orthogonalLoop=1;jettySize=auto;html=1;entryX=0.5;entryY=0;entryDx=0;entryDy=0;" edge="1" parent="1" source="icsO_hYR4mXhb9sZMWGg-56" target="icsO_hYR4mXhb9sZMWGg-35">
          <mxGeometry relative="1" as="geometry">
            <Array as="points">
              <mxPoint x="120" y="150" />
              <mxPoint x="578" y="150" />
            </Array>
          </mxGeometry>
        </mxCell>
        <mxCell id="icsO_hYR4mXhb9sZMWGg-63" value="-" style="edgeLabel;html=1;align=center;verticalAlign=middle;resizable=0;points=[];" vertex="1" connectable="0" parent="icsO_hYR4mXhb9sZMWGg-61">
          <mxGeometry x="0.8398" y="-1" relative="1" as="geometry">
            <mxPoint as="offset" />
          </mxGeometry>
        </mxCell>
        <mxCell id="icsO_hYR4mXhb9sZMWGg-56" value="State 13&lt;br&gt;G -&amp;gt; G &amp;amp; H.&lt;br style=&quot;border-color: var(--border-color);&quot;&gt;H -&amp;gt; H. # I&lt;br style=&quot;border-color: var(--border-color);&quot;&gt;H -&amp;gt; H. - I" style="whiteSpace=wrap;html=1;fontFamily=Times New Roman;rounded=0;" vertex="1" parent="1">
          <mxGeometry x="80" y="220" width="80" height="60" as="geometry" />
        </mxCell>
        <mxCell id="icsO_hYR4mXhb9sZMWGg-64" value="" style="endArrow=classic;html=1;rounded=0;exitX=1;exitY=1;exitDx=0;exitDy=0;entryX=0;entryY=0;entryDx=0;entryDy=0;" edge="1" parent="1" source="icsO_hYR4mXhb9sZMWGg-23" target="icsO_hYR4mXhb9sZMWGg-13">
          <mxGeometry width="50" height="50" relative="1" as="geometry">
            <mxPoint x="280" y="400" as="sourcePoint" />
            <mxPoint x="330" y="350" as="targetPoint" />
          </mxGeometry>
        </mxCell>
        <mxCell id="icsO_hYR4mXhb9sZMWGg-65" value="I" style="edgeLabel;html=1;align=center;verticalAlign=middle;resizable=0;points=[];fontFamily=Times New Roman;" vertex="1" connectable="0" parent="icsO_hYR4mXhb9sZMWGg-64">
          <mxGeometry x="0.767" y="1" relative="1" as="geometry">
            <mxPoint as="offset" />
          </mxGeometry>
        </mxCell>
        <mxCell id="icsO_hYR4mXhb9sZMWGg-66" value="" style="endArrow=classic;html=1;rounded=0;entryX=0;entryY=0;entryDx=0;entryDy=0;exitX=0;exitY=1;exitDx=0;exitDy=0;" edge="1" parent="1" source="icsO_hYR4mXhb9sZMWGg-23" target="icsO_hYR4mXhb9sZMWGg-16">
          <mxGeometry width="50" height="50" relative="1" as="geometry">
            <mxPoint x="218" y="354" as="sourcePoint" />
            <mxPoint x="350" y="410" as="targetPoint" />
          </mxGeometry>
        </mxCell>
        <mxCell id="icsO_hYR4mXhb9sZMWGg-67" value="(" style="edgeLabel;html=1;align=center;verticalAlign=middle;resizable=0;points=[];" vertex="1" connectable="0" parent="icsO_hYR4mXhb9sZMWGg-66">
          <mxGeometry x="0.7394" y="1" relative="1" as="geometry">
            <mxPoint as="offset" />
          </mxGeometry>
        </mxCell>
        <mxCell id="icsO_hYR4mXhb9sZMWGg-68" value="" style="endArrow=classic;html=1;rounded=0;entryX=0;entryY=0;entryDx=0;entryDy=0;" edge="1" parent="1" target="icsO_hYR4mXhb9sZMWGg-21">
          <mxGeometry width="50" height="50" relative="1" as="geometry">
            <mxPoint x="230" y="550" as="sourcePoint" />
            <mxPoint x="350" y="540" as="targetPoint" />
          </mxGeometry>
        </mxCell>
        <mxCell id="icsO_hYR4mXhb9sZMWGg-69" value="id" style="edgeLabel;html=1;align=center;verticalAlign=middle;resizable=0;points=[];" vertex="1" connectable="0" parent="icsO_hYR4mXhb9sZMWGg-68">
          <mxGeometry x="0.7708" relative="1" as="geometry">
            <mxPoint as="offset" />
          </mxGeometry>
        </mxCell>
        <mxCell id="icsO_hYR4mXhb9sZMWGg-70" value="State 14&lt;br&gt;G -&amp;gt; G ~ H.&lt;br style=&quot;border-color: var(--border-color);&quot;&gt;H -&amp;gt; H. # I&lt;br style=&quot;border-color: var(--border-color);&quot;&gt;H -&amp;gt; H. - I" style="whiteSpace=wrap;html=1;fontFamily=Times New Roman;rounded=0;" vertex="1" parent="1">
          <mxGeometry x="305" y="30" width="80" height="70" as="geometry" />
        </mxCell>
        <mxCell id="icsO_hYR4mXhb9sZMWGg-73" value="" style="endArrow=none;html=1;rounded=0;exitX=1;exitY=1;exitDx=0;exitDy=0;" edge="1" parent="1" source="icsO_hYR4mXhb9sZMWGg-26">
          <mxGeometry width="50" height="50" relative="1" as="geometry">
            <mxPoint x="390" y="410" as="sourcePoint" />
            <mxPoint x="410" y="370" as="targetPoint" />
          </mxGeometry>
        </mxCell>
        <mxCell id="icsO_hYR4mXhb9sZMWGg-74" value="" style="endArrow=classic;html=1;rounded=0;exitX=0.886;exitY=1.012;exitDx=0;exitDy=0;exitPerimeter=0;entryX=1;entryY=0;entryDx=0;entryDy=0;" edge="1" parent="1" source="icsO_hYR4mXhb9sZMWGg-26" target="icsO_hYR4mXhb9sZMWGg-16">
          <mxGeometry width="50" height="50" relative="1" as="geometry">
            <mxPoint x="300" y="530" as="sourcePoint" />
            <mxPoint x="350" y="480" as="targetPoint" />
          </mxGeometry>
        </mxCell>
        <mxCell id="icsO_hYR4mXhb9sZMWGg-75" value="(" style="edgeLabel;html=1;align=center;verticalAlign=middle;resizable=0;points=[];" vertex="1" connectable="0" parent="icsO_hYR4mXhb9sZMWGg-74">
          <mxGeometry x="0.6846" y="1" relative="1" as="geometry">
            <mxPoint as="offset" />
          </mxGeometry>
        </mxCell>
        <mxCell id="icsO_hYR4mXhb9sZMWGg-76" value="" style="endArrow=classic;html=1;rounded=0;entryX=0.25;entryY=0;entryDx=0;entryDy=0;exitX=0.938;exitY=1;exitDx=0;exitDy=0;exitPerimeter=0;" edge="1" parent="1" source="icsO_hYR4mXhb9sZMWGg-26" target="icsO_hYR4mXhb9sZMWGg-21">
          <mxGeometry width="50" height="50" relative="1" as="geometry">
            <mxPoint x="350" y="530" as="sourcePoint" />
            <mxPoint x="400" y="480" as="targetPoint" />
          </mxGeometry>
        </mxCell>
        <mxCell id="icsO_hYR4mXhb9sZMWGg-77" value="id" style="edgeLabel;html=1;align=center;verticalAlign=middle;resizable=0;points=[];" vertex="1" connectable="0" parent="icsO_hYR4mXhb9sZMWGg-76">
          <mxGeometry x="-0.2554" y="-2" relative="1" as="geometry">
            <mxPoint x="10" y="28" as="offset" />
          </mxGeometry>
        </mxCell>
        <mxCell id="icsO_hYR4mXhb9sZMWGg-79" value="State 15&lt;br&gt;H -&amp;gt; H # I." style="whiteSpace=wrap;html=1;fontFamily=Times New Roman;rounded=0;" vertex="1" parent="1">
          <mxGeometry x="465" y="30" width="70" height="50" as="geometry" />
        </mxCell>
        <mxCell id="icsO_hYR4mXhb9sZMWGg-80" value="State 16&lt;br&gt;H -&amp;gt; H - I." style="whiteSpace=wrap;html=1;fontFamily=Times New Roman;rounded=0;" vertex="1" parent="1">
          <mxGeometry x="580" y="30" width="70" height="50" as="geometry" />
        </mxCell>
        <mxCell id="icsO_hYR4mXhb9sZMWGg-81" value="" style="endArrow=classic;html=1;rounded=0;exitX=0.75;exitY=0;exitDx=0;exitDy=0;entryX=0.5;entryY=1;entryDx=0;entryDy=0;" edge="1" parent="1" source="icsO_hYR4mXhb9sZMWGg-29" target="icsO_hYR4mXhb9sZMWGg-79">
          <mxGeometry width="50" height="50" relative="1" as="geometry">
            <mxPoint x="530" y="240" as="sourcePoint" />
            <mxPoint x="580" y="190" as="targetPoint" />
          </mxGeometry>
        </mxCell>
        <mxCell id="icsO_hYR4mXhb9sZMWGg-82" value="I" style="edgeLabel;html=1;align=center;verticalAlign=middle;resizable=0;points=[];fontFamily=Times New Roman;" vertex="1" connectable="0" parent="icsO_hYR4mXhb9sZMWGg-81">
          <mxGeometry x="0.5751" relative="1" as="geometry">
            <mxPoint as="offset" />
          </mxGeometry>
        </mxCell>
        <mxCell id="icsO_hYR4mXhb9sZMWGg-83" value="" style="endArrow=classic;html=1;rounded=0;exitX=0.75;exitY=0;exitDx=0;exitDy=0;entryX=0.5;entryY=1;entryDx=0;entryDy=0;" edge="1" parent="1" source="icsO_hYR4mXhb9sZMWGg-35" target="icsO_hYR4mXhb9sZMWGg-80">
          <mxGeometry width="50" height="50" relative="1" as="geometry">
            <mxPoint x="530" y="240" as="sourcePoint" />
            <mxPoint x="580" y="190" as="targetPoint" />
          </mxGeometry>
        </mxCell>
        <mxCell id="icsO_hYR4mXhb9sZMWGg-84" value="I" style="edgeLabel;html=1;align=center;verticalAlign=middle;resizable=0;points=[];fontFamily=Times New Roman;" vertex="1" connectable="0" parent="icsO_hYR4mXhb9sZMWGg-83">
          <mxGeometry x="0.5655" y="-1" relative="1" as="geometry">
            <mxPoint as="offset" />
          </mxGeometry>
        </mxCell>
        <mxCell id="icsO_hYR4mXhb9sZMWGg-85" value="" style="endArrow=none;html=1;rounded=0;entryX=0;entryY=1;entryDx=0;entryDy=0;" edge="1" parent="1" target="icsO_hYR4mXhb9sZMWGg-29">
          <mxGeometry width="50" height="50" relative="1" as="geometry">
            <mxPoint x="367" y="507" as="sourcePoint" />
            <mxPoint x="430" y="440" as="targetPoint" />
          </mxGeometry>
        </mxCell>
        <mxCell id="icsO_hYR4mXhb9sZMWGg-86" value="" style="endArrow=none;html=1;rounded=0;entryX=0;entryY=1;entryDx=0;entryDy=0;" edge="1" parent="1" target="icsO_hYR4mXhb9sZMWGg-35">
          <mxGeometry width="50" height="50" relative="1" as="geometry">
            <mxPoint x="366" y="505" as="sourcePoint" />
            <mxPoint x="420" y="440" as="targetPoint" />
          </mxGeometry>
        </mxCell>
        <mxCell id="icsO_hYR4mXhb9sZMWGg-87" value="" style="endArrow=classic;html=1;rounded=0;exitX=0.25;exitY=1;exitDx=0;exitDy=0;entryX=0.379;entryY=-0.064;entryDx=0;entryDy=0;entryPerimeter=0;" edge="1" parent="1" source="icsO_hYR4mXhb9sZMWGg-29" target="icsO_hYR4mXhb9sZMWGg-21">
          <mxGeometry width="50" height="50" relative="1" as="geometry">
            <mxPoint x="350" y="470" as="sourcePoint" />
            <mxPoint x="400" y="420" as="targetPoint" />
          </mxGeometry>
        </mxCell>
        <mxCell id="icsO_hYR4mXhb9sZMWGg-88" value="id" style="edgeLabel;html=1;align=center;verticalAlign=middle;resizable=0;points=[];" vertex="1" connectable="0" parent="icsO_hYR4mXhb9sZMWGg-87">
          <mxGeometry x="-0.2756" relative="1" as="geometry">
            <mxPoint as="offset" />
          </mxGeometry>
        </mxCell>
        <mxCell id="icsO_hYR4mXhb9sZMWGg-89" value="" style="endArrow=classic;html=1;rounded=0;exitX=1;exitY=1;exitDx=0;exitDy=0;entryX=1;entryY=0;entryDx=0;entryDy=0;" edge="1" parent="1" source="icsO_hYR4mXhb9sZMWGg-35" target="icsO_hYR4mXhb9sZMWGg-21">
          <mxGeometry width="50" height="50" relative="1" as="geometry">
            <mxPoint x="350" y="470" as="sourcePoint" />
            <mxPoint x="400" y="420" as="targetPoint" />
          </mxGeometry>
        </mxCell>
        <mxCell id="icsO_hYR4mXhb9sZMWGg-90" value="id" style="edgeLabel;html=1;align=center;verticalAlign=middle;resizable=0;points=[];" vertex="1" connectable="0" parent="icsO_hYR4mXhb9sZMWGg-89">
          <mxGeometry x="0.7552" y="1" relative="1" as="geometry">
            <mxPoint as="offset" />
          </mxGeometry>
        </mxCell>
        <mxCell id="icsO_hYR4mXhb9sZMWGg-91" value="State 17&lt;br&gt;I -&amp;gt; (G)." style="whiteSpace=wrap;html=1;fontFamily=Times New Roman;rounded=0;" vertex="1" parent="1">
          <mxGeometry x="90" y="990" width="90" height="60" as="geometry" />
        </mxCell>
        <mxCell id="icsO_hYR4mXhb9sZMWGg-111" value="" style="edgeStyle=orthogonalEdgeStyle;rounded=0;orthogonalLoop=1;jettySize=auto;html=1;" edge="1" parent="1" source="icsO_hYR4mXhb9sZMWGg-98" target="icsO_hYR4mXhb9sZMWGg-110">
          <mxGeometry relative="1" as="geometry" />
        </mxCell>
        <mxCell id="icsO_hYR4mXhb9sZMWGg-98" value="State 18&lt;br&gt;I -&amp;gt; id(I.)" style="whiteSpace=wrap;html=1;fontFamily=Times New Roman;rounded=0;" vertex="1" parent="1">
          <mxGeometry x="627.5" y="780" width="95" height="60" as="geometry" />
        </mxCell>
        <mxCell id="icsO_hYR4mXhb9sZMWGg-101" style="edgeStyle=orthogonalEdgeStyle;rounded=0;orthogonalLoop=1;jettySize=auto;html=1;entryX=1.014;entryY=0.842;entryDx=0;entryDy=0;entryPerimeter=0;exitX=0;exitY=0.75;exitDx=0;exitDy=0;" edge="1" parent="1" source="icsO_hYR4mXhb9sZMWGg-53" target="icsO_hYR4mXhb9sZMWGg-16">
          <mxGeometry relative="1" as="geometry">
            <Array as="points">
              <mxPoint x="580" y="708" />
              <mxPoint x="580" y="740" />
              <mxPoint x="488" y="740" />
              <mxPoint x="488" y="792" />
            </Array>
          </mxGeometry>
        </mxCell>
        <mxCell id="icsO_hYR4mXhb9sZMWGg-102" value="(" style="edgeLabel;html=1;align=center;verticalAlign=middle;resizable=0;points=[];" vertex="1" connectable="0" parent="icsO_hYR4mXhb9sZMWGg-101">
          <mxGeometry x="0.1243" y="1" relative="1" as="geometry">
            <mxPoint as="offset" />
          </mxGeometry>
        </mxCell>
        <mxCell id="icsO_hYR4mXhb9sZMWGg-103" value="" style="endArrow=classic;html=1;rounded=0;exitX=0;exitY=0.306;exitDx=0;exitDy=0;entryX=1;entryY=0.25;entryDx=0;entryDy=0;exitPerimeter=0;" edge="1" parent="1" source="icsO_hYR4mXhb9sZMWGg-53" target="icsO_hYR4mXhb9sZMWGg-21">
          <mxGeometry width="50" height="50" relative="1" as="geometry">
            <mxPoint x="460" y="650" as="sourcePoint" />
            <mxPoint x="510" y="600" as="targetPoint" />
          </mxGeometry>
        </mxCell>
        <mxCell id="icsO_hYR4mXhb9sZMWGg-104" value="id" style="edgeLabel;html=1;align=center;verticalAlign=middle;resizable=0;points=[];" vertex="1" connectable="0" parent="icsO_hYR4mXhb9sZMWGg-103">
          <mxGeometry x="-0.0622" y="-2" relative="1" as="geometry">
            <mxPoint as="offset" />
          </mxGeometry>
        </mxCell>
        <mxCell id="icsO_hYR4mXhb9sZMWGg-106" value="" style="endArrow=classic;html=1;rounded=0;exitX=0.75;exitY=1;exitDx=0;exitDy=0;entryX=0;entryY=0;entryDx=0;entryDy=0;" edge="1" parent="1" source="icsO_hYR4mXhb9sZMWGg-70" target="icsO_hYR4mXhb9sZMWGg-29">
          <mxGeometry width="50" height="50" relative="1" as="geometry">
            <mxPoint x="360" y="280" as="sourcePoint" />
            <mxPoint x="410" y="230" as="targetPoint" />
          </mxGeometry>
        </mxCell>
        <mxCell id="icsO_hYR4mXhb9sZMWGg-107" value="#" style="edgeLabel;html=1;align=center;verticalAlign=middle;resizable=0;points=[];" vertex="1" connectable="0" parent="icsO_hYR4mXhb9sZMWGg-106">
          <mxGeometry x="0.3943" y="-1" relative="1" as="geometry">
            <mxPoint as="offset" />
          </mxGeometry>
        </mxCell>
        <mxCell id="icsO_hYR4mXhb9sZMWGg-108" value="" style="endArrow=classic;html=1;rounded=0;exitX=1;exitY=1;exitDx=0;exitDy=0;entryX=0;entryY=0;entryDx=0;entryDy=0;" edge="1" parent="1" source="icsO_hYR4mXhb9sZMWGg-70" target="icsO_hYR4mXhb9sZMWGg-35">
          <mxGeometry width="50" height="50" relative="1" as="geometry">
            <mxPoint x="360" y="280" as="sourcePoint" />
            <mxPoint x="410" y="230" as="targetPoint" />
          </mxGeometry>
        </mxCell>
        <mxCell id="icsO_hYR4mXhb9sZMWGg-109" value="-" style="edgeLabel;html=1;align=center;verticalAlign=middle;resizable=0;points=[];" vertex="1" connectable="0" parent="icsO_hYR4mXhb9sZMWGg-108">
          <mxGeometry x="0.652" relative="1" as="geometry">
            <mxPoint as="offset" />
          </mxGeometry>
        </mxCell>
        <mxCell id="icsO_hYR4mXhb9sZMWGg-110" value="State 19&lt;br&gt;I -&amp;gt; id(I)." style="whiteSpace=wrap;html=1;fontFamily=Times New Roman;rounded=0;" vertex="1" parent="1">
          <mxGeometry x="630" y="880" width="90" height="60" as="geometry" />
        </mxCell>
      </root>
    </mxGraphModel>
  </diagram>
</mxfile>
